<?xml version="1.0" encoding="UTF-8"?>
<svg xmlns="http://www.w3.org/2000/svg" xmlns:xlink="http://www.w3.org/1999/xlink" width="110.93pt" height="166.83pt" viewBox="0 0 110.93 166.83" version="1.1">
<defs>
<clipPath id="clip1">
  <path d="M 0 0 L 110.929688 0 L 110.929688 166.828125 L 0 166.828125 Z M 0 0 "/>
</clipPath>
</defs>
<g id="surface1">
<g clip-path="url(#clip1)" clip-rule="nonzero">
<path style=" stroke:none;fill-rule:nonzero;fill:rgb(93.299866%,23.098755%,14.099121%);fill-opacity:1;" d="M 110.933594 0.00390625 L 0 66.5625 L 21.761719 166.828125 L 110.078125 127.789063 Z M 110.933594 0.00390625 "/>
</g>
<path style=" stroke:none;fill-rule:nonzero;fill:rgb(100%,100%,100%);fill-opacity:1;" d="M 32.324219 67.6875 L 32.324219 95.273438 C 32.324219 95.273438 49.007813 97.363281 52.34375 83.417969 L 52.34375 67.6875 L 47.339844 67.6875 L 47.339844 81.535156 C 47.339844 81.535156 46.449219 88.375 37.773438 89.933594 L 37.773438 67.6875 "/>
<path style=" stroke:none;fill-rule:nonzero;fill:rgb(100%,100%,100%);fill-opacity:1;" d="M 55.46875 95.382813 L 60.578125 95.382813 L 60.578125 72.804688 L 67.027344 72.804688 C 67.027344 72.804688 69.917969 73.359375 69.917969 75.695313 L 69.917969 95.382813 L 75.371094 95.382813 L 75.371094 73.804688 C 75.371094 73.804688 73.375 67.6875 65.417969 67.6875 L 55.46875 67.6875 "/>
<path style=" stroke:none;fill-rule:nonzero;fill:rgb(100%,100%,100%);fill-opacity:1;" d="M 95.28125 72.804688 L 95.28125 67.6875 L 84.046875 67.6875 C 84.046875 67.6875 78.152344 70.46875 78.152344 73.917969 L 78.152344 88.375 C 78.152344 88.375 79.039063 95.382813 83.933594 95.382813 L 90.050781 95.382813 C 90.050781 95.382813 98.171875 94.605469 98.171875 89.710938 L 98.171875 78.589844 L 86.15625 78.589844 L 86.15625 83.984375 L 92.945313 83.984375 L 92.945313 86.820313 C 92.945313 86.820313 93.054688 89.824219 90.71875 89.824219 L 85.15625 89.824219 C 85.15625 89.824219 83.15625 89.710938 83.15625 86.375 L 83.15625 75.25 C 83.15625 75.25 83.824219 72.914063 85.824219 72.914063 C 87.828125 72.914063 95.28125 72.804688 95.28125 72.804688 "/>
</g>
</svg>
